<svg width="351" height="227" viewBox="0 0 351 227" fill="none" xmlns="http://www.w3.org/2000/svg">
<path d="M4.42188 224.156H0V223.734H1.25V215.203H0V214.781H5.03125C5.85417 214.781 6.55208 214.974 7.125 215.359C7.8125 215.828 8.15625 216.453 8.15625 217.234C8.15625 217.495 8.11458 217.755 8.03125 218.016C7.73958 218.859 7.0625 219.422 6 219.703L8.45312 223.75H8.78125C8.84375 223.75 8.90625 223.755 8.96875 223.766C9.10417 223.797 9.17188 223.927 9.17188 224.156L6.54688 224.172L4.17188 219.875H3.17188V223.734H4.42188V224.156ZM4.25 215.203H3.17188V219.406H4.34375C4.70833 219.406 5.03125 219.307 5.3125 219.109C5.84375 218.724 6.10938 218.115 6.10938 217.281C6.10938 216.958 6.05729 216.656 5.95312 216.375C5.66146 215.594 5.09375 215.203 4.25 215.203Z" fill="white"/>
<path d="M25.4256 217.719H25.0194L24.7225 216.75C24.6912 216.646 24.6548 216.547 24.6131 216.453C24.2798 215.62 23.7121 215.203 22.91 215.203H20.91V219.094H23.9881V219.562H20.91V223.734H22.91C23.1183 223.734 23.311 223.708 23.4881 223.656C24.0298 223.49 24.436 223 24.7069 222.188L25.0194 221.219H25.4256L25.3631 224.156H17.7381V223.734H18.9881V215.203H17.7381V214.781H25.3631L25.4256 217.719Z" fill="white"/>
<path d="M42.2419 221.594C42.2419 222.271 42.0023 222.844 41.5231 223.312C40.8356 223.979 39.8512 224.312 38.57 224.312C37.4762 224.312 36.5231 224.047 35.7106 223.516C35.7106 223.714 35.7002 223.859 35.6794 223.953C35.6273 224.109 35.471 224.188 35.2106 224.188V220.906H35.7731C35.8044 221.312 35.8721 221.688 35.9762 222.031C36.3721 223.25 37.1898 223.859 38.4294 223.859C38.7627 223.859 39.0648 223.802 39.3356 223.688C40.0127 223.417 40.3512 222.917 40.3512 222.188C40.3512 221.948 40.294 221.719 40.1794 221.5C39.9606 221.062 39.3929 220.62 38.4762 220.172C37.4867 219.682 36.9137 219.396 36.7575 219.312C35.7783 218.719 35.2887 217.984 35.2887 217.109C35.2887 216.526 35.4971 216.021 35.9137 215.594C36.5492 214.948 37.471 214.625 38.6794 214.625C39.6273 214.625 40.5127 214.828 41.3356 215.234C41.3356 215.141 41.3408 215.057 41.3512 214.984C41.3929 214.786 41.5596 214.688 41.8512 214.688V217.484H41.2887C41.2887 216.911 41.1429 216.417 40.8512 216C40.4137 215.385 39.7679 215.078 38.9137 215.078C38.6429 215.078 38.3877 215.125 38.1481 215.219C37.544 215.448 37.2419 215.875 37.2419 216.5C37.2419 216.74 37.2992 216.974 37.4137 217.203C37.6325 217.63 38.1898 218.068 39.0856 218.516C40.0648 218.995 40.6273 219.276 40.7731 219.359C41.7523 219.964 42.2419 220.708 42.2419 221.594Z" fill="white"/>
<path d="M57.9019 224.156H53.0269V223.734H54.5112V215.203H54.0581C53.8498 215.203 53.6623 215.229 53.4956 215.281C52.9435 215.448 52.5425 215.938 52.2925 216.75L51.8862 218.047H51.4175L51.4956 214.781H59.4644L59.5269 218.047H59.0737L58.6675 216.75C58.6258 216.615 58.579 216.484 58.5269 216.359C58.204 215.589 57.6623 215.203 56.9019 215.203H56.4331V223.734H57.4956C57.6831 223.755 57.8185 223.896 57.9019 224.156Z" fill="white"/>
<path d="M77.9681 224.156H74.0462V223.734H75.1244L73.9525 220.734H70.7962L69.6556 223.734H70.4837C70.5462 223.734 70.6035 223.74 70.6556 223.75C70.8015 223.781 70.8744 223.917 70.8744 224.156H68.0306V223.734H69.0306L72.4681 214.781H73.4369L77.0931 223.734H77.5775C77.6504 223.734 77.7077 223.74 77.7494 223.75C77.8952 223.781 77.9681 223.917 77.9681 224.156ZM73.765 220.266L72.3587 216.609L70.9681 220.266H73.765Z" fill="white"/>
<path d="M86.2844 215.203V214.781H90.6906V215.203H89.4406V220.578C89.4406 221.12 89.4823 221.594 89.5656 222C89.826 223.24 90.5448 223.859 91.7219 223.859C93.4094 223.849 94.2583 222.76 94.2688 220.594V215.203H93.0188V214.781H96.0813V215.203H94.8313V220.5C94.8313 221.208 94.7531 221.818 94.5969 222.328C94.1698 223.651 93.1021 224.312 91.3938 224.312C88.8417 224.302 87.5552 223.094 87.5344 220.688V215.203H86.2844Z" fill="white"/>
<path d="M109.147 224.156H104.726V223.734H105.976V215.203H104.726V214.781H109.757C110.58 214.781 111.278 214.974 111.851 215.359C112.538 215.828 112.882 216.453 112.882 217.234C112.882 217.495 112.84 217.755 112.757 218.016C112.465 218.859 111.788 219.422 110.726 219.703L113.179 223.75H113.507C113.569 223.75 113.632 223.755 113.694 223.766C113.83 223.797 113.897 223.927 113.897 224.156L111.272 224.172L108.897 219.875H107.897V223.734H109.147V224.156ZM108.976 215.203H107.897V219.406H109.069C109.434 219.406 109.757 219.307 110.038 219.109C110.569 218.724 110.835 218.115 110.835 217.281C110.835 216.958 110.783 216.656 110.679 216.375C110.387 215.594 109.819 215.203 108.976 215.203Z" fill="white"/>
<path d="M131.995 224.156H128.073V223.734H129.151L127.979 220.734H124.823L123.682 223.734H124.511C124.573 223.734 124.63 223.74 124.682 223.75C124.828 223.781 124.901 223.917 124.901 224.156H122.057V223.734H123.057L126.495 214.781H127.464L131.12 223.734H131.604C131.677 223.734 131.735 223.74 131.776 223.75C131.922 223.781 131.995 223.917 131.995 224.156ZM127.792 220.266L126.386 216.609L124.995 220.266H127.792Z" fill="white"/>
<path d="M147.28 215.203V214.781H150.452V215.203H149.202V224.078L148.374 224.234L142.311 217V223.734H143.217C143.436 223.755 143.577 223.896 143.639 224.156H140.421V223.734H141.671V215.203H140.421V214.781H142.905L148.561 221.547V215.203H147.28Z" fill="white"/>
<path d="M165.534 224.156H160.659V223.734H162.143V215.203H161.69C161.482 215.203 161.294 215.229 161.128 215.281C160.575 215.448 160.174 215.938 159.924 216.75L159.518 218.047H159.049L159.128 214.781H167.096L167.159 218.047H166.706L166.299 216.75C166.258 216.615 166.211 216.484 166.159 216.359C165.836 215.589 165.294 215.203 164.534 215.203H164.065V223.734H165.128C165.315 223.755 165.45 223.896 165.534 224.156Z" fill="white"/>
<path d="M183.756 217.719H183.35L183.053 216.75C183.022 216.646 182.985 216.547 182.944 216.453C182.61 215.62 182.043 215.203 181.241 215.203H179.241V219.094H182.319V219.562H179.241V223.734H181.241C181.449 223.734 181.642 223.708 181.819 223.656C182.36 223.49 182.767 223 183.038 222.188L183.35 221.219H183.756L183.694 224.156H176.069V223.734H177.319V215.203H176.069V214.781H183.694L183.756 217.719Z" fill="white"/>
<path d="M205.357 226.281V214H206.498V226.281H205.357Z" fill="white"/>
<path d="M232.099 215.203H230.943V219.562H231.974C232.037 219.562 232.099 219.562 232.162 219.562C233.276 219.479 233.834 218.745 233.834 217.359C233.834 217.214 233.829 217.073 233.818 216.938C233.693 215.781 233.12 215.203 232.099 215.203ZM232.506 224.156H227.771V223.734H229.021V215.203H227.771V214.781H232.802C233.5 214.781 234.094 214.901 234.584 215.141C235.459 215.568 235.896 216.276 235.896 217.266C235.896 217.693 235.813 218.083 235.646 218.438C235.146 219.5 234.016 220.031 232.256 220.031H230.943V223.734H232.084C232.302 223.755 232.443 223.896 232.506 224.156Z" fill="white"/>
<path d="M249.134 224.156H244.712V223.734H245.962V215.203H244.712V214.781H249.134V215.203H247.884V223.734H248.712C248.931 223.755 249.072 223.896 249.134 224.156Z" fill="white"/>
<path d="M265.872 224.156H258.044V223.828L263.81 215.188L260.982 215.203C260.461 215.214 260.039 215.547 259.716 216.203L259.076 217.609H258.654L258.779 214.781H265.81V215.125L260.185 223.734H263.513C264.284 223.724 264.794 223.286 265.044 222.422L265.466 220.922H265.904L265.872 224.156Z" fill="white"/>
<path d="M282.642 224.156H274.814V223.828L280.579 215.188L277.751 215.203C277.23 215.214 276.809 215.547 276.486 216.203L275.845 217.609H275.423L275.548 214.781H282.579V215.125L276.954 223.734H280.283C281.053 223.724 281.564 223.286 281.814 222.422L282.236 220.922H282.673L282.642 224.156Z" fill="white"/>
<path d="M301.177 224.156H297.255V223.734H298.333L297.161 220.734H294.005L292.864 223.734H293.693C293.755 223.734 293.812 223.74 293.864 223.75C294.01 223.781 294.083 223.917 294.083 224.156H291.239V223.734H292.239L295.677 214.781H296.646L300.302 223.734H300.786C300.859 223.734 300.916 223.74 300.958 223.75C301.104 223.781 301.177 223.917 301.177 224.156ZM296.974 220.266L295.568 216.609L294.177 220.266H296.974Z" fill="white"/>
<path d="M314.165 224.156H309.743V223.734H310.993V215.203H309.743V214.781H314.774C315.597 214.781 316.295 214.974 316.868 215.359C317.556 215.828 317.899 216.453 317.899 217.234C317.899 217.495 317.858 217.755 317.774 218.016C317.483 218.859 316.806 219.422 315.743 219.703L318.196 223.75H318.524C318.587 223.75 318.649 223.755 318.712 223.766C318.847 223.797 318.915 223.927 318.915 224.156L316.29 224.172L313.915 219.875H312.915V223.734H314.165V224.156ZM313.993 215.203H312.915V219.406H314.087C314.451 219.406 314.774 219.307 315.056 219.109C315.587 218.724 315.853 218.115 315.853 217.281C315.853 216.958 315.8 216.656 315.696 216.375C315.405 215.594 314.837 215.203 313.993 215.203Z" fill="white"/>
<path d="M331.903 224.156H327.481V223.734H328.731V215.203H327.481V214.781H331.903V215.203H330.653V223.734H331.481C331.7 223.755 331.841 223.896 331.903 224.156Z" fill="white"/>
<path d="M350.407 224.156H346.485V223.734H347.563L346.391 220.734H343.235L342.094 223.734H342.922C342.985 223.734 343.042 223.74 343.094 223.75C343.24 223.781 343.313 223.917 343.313 224.156H340.469V223.734H341.469L344.907 214.781H345.876L349.532 223.734H350.016C350.089 223.734 350.146 223.74 350.188 223.75C350.334 223.781 350.407 223.917 350.407 224.156ZM346.204 220.266L344.797 216.609L343.407 220.266H346.204Z" fill="white"/>
<path fill-rule="evenodd" clip-rule="evenodd" d="M47.5 143.699C39.025 145.555 31.982 152.174 29.151 160.942C27.102 167.286 27.02 178.843 28.977 185.435C30.768 191.464 36.249 198.119 41.857 201.075C45.215 202.844 47.72 203.264 55.078 203.29C63.464 203.321 64.53 203.092 69.044 200.302C78.953 194.175 83.307 184.233 82.279 170.081C81.405 158.054 75.698 148.893 66.748 145.153C62.624 143.43 52.289 142.649 47.5 143.699ZM150.832 143.72C144.81 145.273 138.53 149.808 135.026 155.132C126.85 167.555 127.844 184.173 137.413 195.072C145.581 204.374 165.712 206.793 175.709 199.674L178.56 197.644L178.28 185.484L178 173.323H171.5H165L164.871 179.823C164.64 191.522 164.614 191.652 162.413 192.351C156.365 194.27 146.47 187.977 144.525 180.975C140.539 166.622 148.235 154.823 161.584 154.823C165.803 154.823 172.67 158.17 174.693 161.213C175.079 161.795 175.864 160.945 176.469 159.289C177.066 157.658 178.074 155.019 178.71 153.425C179.768 150.771 179.618 150.327 176.933 148.167C175.32 146.869 172.425 145.345 170.5 144.78C165.588 143.338 154.605 142.746 150.832 143.72ZM311.146 143.929C304.24 145.552 298.998 150.107 295.316 157.687C291.955 164.605 291.524 179.229 294.452 187.003C298.28 197.166 306.098 202.775 317.581 203.597C337.994 205.057 350.627 188.576 346.507 165.86C343.331 148.349 329.32 139.659 311.146 143.929ZM10.635 147.352C11.177 149.313 11.474 160.468 11.305 172.463L11 194.046L7.5 196.995L4 199.944L6.361 201.883C11.133 205.804 20.011 203.521 23.188 197.556C24.55 195.001 24.974 191.177 25.211 179.323C25.376 171.073 25.632 159.71 25.78 154.073L26.051 143.823H17.856H9.661L10.635 147.352ZM84.105 146.387C85.099 150.345 85.154 195.718 84.171 199.573L83.341 202.823H92.028C99.96 202.823 100.64 202.671 99.857 201.073C98.764 198.841 98.428 174.823 99.49 174.823C100.415 174.823 100.46 174.928 105.578 189.116C107.719 195.052 109.365 200.452 109.236 201.116C109.068 201.972 111.686 202.406 118.25 202.611C123.338 202.769 127.5 202.638 127.5 202.32C127.5 202.002 126.594 200.517 125.487 199.02C123.37 196.156 117.481 182.432 117.527 180.469C117.542 179.839 119.234 178.288 121.287 177.024C126.484 173.822 128.51 169.855 128.452 162.992C128.387 155.348 126.102 151.08 120.082 147.361C115.226 144.362 114.962 144.319 99.291 143.984L83.417 143.646L84.105 146.387ZM180.217 146.573C181.116 149.844 181.01 196.654 180.096 200.296L179.462 202.823H196.956H214.45L213.475 200.258C212.339 197.269 212.14 174.814 213.25 174.842C213.663 174.852 217.214 181.04 221.142 188.592L228.284 202.323L245.44 202.597C262.205 202.864 262.572 202.826 261.548 200.913C260.972 199.836 260.5 194.425 260.5 188.889V178.823H267.889H275.277L275.95 182.408C276.573 185.728 276.092 193.515 274.858 200.073L274.341 202.823H283.028C290.96 202.823 291.64 202.671 290.857 201.073C289.793 198.899 289.714 150.345 290.769 146.573L291.538 143.823H282.902C274.404 143.823 274.278 143.859 274.975 146.073C275.364 147.311 275.92 152.216 276.209 156.975C276.835 167.267 276.475 167.646 266.645 167.032L260.29 166.635L260.652 155.229L261.014 143.823L244.507 143.822H228L228.334 158.072C228.691 173.274 228.492 173.651 224.24 165.823C222.896 163.348 219.668 157.386 217.067 152.573L212.338 143.823H195.9H179.462L180.217 146.573ZM198.414 173.323C198.465 196.472 197.882 202.537 195.804 200.461C194.722 199.379 194.771 148.857 195.857 146.323L196.715 144.323L197.537 146.323C197.989 147.423 198.384 159.573 198.414 173.323ZM245.893 147.405C246.227 148.275 246.493 160.087 246.485 173.655C246.47 197.731 245.832 203.352 243.515 199.823C242.451 198.201 242.106 151.895 243.13 148.073C243.834 145.447 245.031 145.158 245.893 147.405ZM62.122 157.311C65.879 159.772 68.456 166.288 68.456 173.323C68.456 185.011 62.461 192.387 53.688 191.494C45.585 190.669 40.924 182.953 41.682 171.616C42.2 163.866 43.957 160.105 48.5 157.024C52.479 154.326 57.735 154.437 62.122 157.311ZM325.465 156.665C330.71 159.477 333.005 164.786 332.973 174.025C332.949 180.948 332.642 182.162 329.936 186.025C327.44 189.587 326.149 190.474 322.395 191.207C312.683 193.101 306.063 185.786 306.251 173.37C306.38 164.904 308.822 159.233 313.375 156.827C317.982 154.392 321.149 154.35 325.465 156.665ZM112.556 157.667C115.68 160.197 115.652 165.472 112.5 168.024C110.706 169.477 108.878 169.845 104.584 169.618L99 169.323L98.684 164.903C98.106 156.812 98.784 155.823 104.908 155.823C108.637 155.823 110.974 156.387 112.556 157.667Z" fill="white"/>
<path fill-rule="evenodd" clip-rule="evenodd" d="M181.831 3.73876C178.582 6.82876 177.782 8.25076 178.038 10.4808C178.256 12.3738 179.022 13.4228 180.363 13.6618C186.471 14.7478 184.609 19.1458 172.945 31.1838C162.562 41.8988 160.681 44.6898 158.797 52.1718C158.153 54.7298 157.229 56.8228 156.744 56.8228C155.507 56.8228 155.628 55.5318 157.545 48.3388C159.126 42.4068 159.124 41.8698 157.522 39.4248C155.111 35.7448 152.74 35.9578 153.505 39.7848C154.097 42.7428 152.31 46.6538 146.365 55.4148C143.675 59.3798 141.404 70.3628 142.14 75.8518C142.956 81.9348 146.518 86.6398 153.945 91.4448C162.012 96.6628 163.352 96.9558 159.11 92.5728C155.239 88.5738 152.863 83.0908 152.863 78.1578V74.4278L157.019 78.6258C162.333 83.9928 164.969 84.2508 164.17 79.3248C163.486 75.1138 165.438 64.5078 167.665 60.3358L169.272 57.3228L170.127 61.8228C172.468 74.1548 174.117 78.7778 177.37 82.1278C180.642 85.4958 186.744 87.8228 192.306 87.8228C197.418 87.8228 194.891 90.7838 188.897 91.8168L185.363 92.4268L188.563 94.1248C193.854 96.9318 198.526 96.3598 202.463 92.4228C204.981 89.9048 205.862 88.1538 205.857 85.6728C205.849 80.3668 204.142 75.5668 200.385 70.2828C196.278 64.5068 196.87 63.2448 203.563 63.5038L208.166 63.6818L206.161 61.6768C205.059 60.5738 202.343 59.4288 200.126 59.1308C196.885 58.6968 195.675 59.0108 193.954 60.7318C192.175 62.5108 191.852 63.8838 192.048 68.8378C192.286 74.8738 191.077 77.6918 188.842 76.3098C188.058 75.8258 187.863 74.2248 188.274 71.6518C188.866 67.9538 188.787 67.7928 186.882 68.8128C185.433 69.5878 184.863 69.5868 184.863 68.8088C184.863 66.0848 188.169 61.8318 192.079 59.5268C198.955 55.4728 202.063 51.6438 201.685 47.6928C201.407 44.7858 200.686 43.9748 196.437 41.7938C190.764 38.8818 189.961 37.4778 192.415 34.7648C194.112 32.8898 194.084 32.8228 191.607 32.8228C189.969 32.8228 188.104 33.9358 186.452 35.8998C182.332 40.7958 183.181 44.0068 188.654 44.2238C191.858 44.3508 194.021 47.4598 191.863 48.8358C189.447 50.3758 185.265 49.9688 182.772 47.9498C180.582 46.1768 180.528 45.8438 181.748 41.6998C182.457 39.2928 184.771 33.8678 186.891 29.6448C193.134 17.2088 193.179 12.8718 187.082 11.3418C183.054 10.3308 182.743 8.88376 185.529 4.12876C188.671 -1.23124 187.216 -1.38424 181.831 3.73876Z" fill="#FFB84D"/>
<path d="M69 132.209V106.439H77.3496C80.5137 106.439 82.5762 106.568 83.5371 106.826C85.0137 107.213 86.25 108.057 87.2461 109.357C88.2422 110.646 88.7402 112.316 88.7402 114.367C88.7402 115.949 88.4531 117.279 87.8789 118.357C87.3047 119.436 86.5723 120.285 85.6816 120.906C84.8027 121.516 83.9062 121.92 82.9922 122.119C81.75 122.365 79.9512 122.488 77.5957 122.488H74.2031V132.209H69ZM74.2031 110.799V118.111H77.0508C79.1016 118.111 80.4727 117.977 81.1641 117.707C81.8555 117.438 82.3945 117.016 82.7812 116.441C83.1797 115.867 83.3789 115.199 83.3789 114.438C83.3789 113.5 83.1035 112.727 82.5527 112.117C82.002 111.508 81.3047 111.127 80.4609 110.975C79.8398 110.857 78.5918 110.799 76.7168 110.799H74.2031Z" fill="white"/>
<path d="M91.7735 132.209V106.439H96.9766V132.209H91.7735Z" fill="white"/>
<path d="M117.36 122.734L122.404 124.334C121.631 127.146 120.342 129.238 118.537 130.609C116.744 131.969 114.465 132.648 111.699 132.648C108.278 132.648 105.465 131.482 103.262 129.15C101.059 126.807 99.9572 123.607 99.9572 119.553C99.9572 115.264 101.065 111.936 103.279 109.568C105.494 107.189 108.406 106 112.016 106C115.168 106 117.729 106.932 119.697 108.795C120.869 109.896 121.748 111.479 122.334 113.541L117.184 114.771C116.879 113.436 116.24 112.381 115.268 111.607C114.307 110.834 113.135 110.447 111.752 110.447C109.842 110.447 108.289 111.133 107.094 112.504C105.91 113.875 105.319 116.096 105.319 119.166C105.319 122.424 105.904 124.744 107.076 126.127C108.248 127.51 109.772 128.201 111.647 128.201C113.029 128.201 114.219 127.762 115.215 126.883C116.211 126.004 116.926 124.621 117.36 122.734Z" fill="white"/>
<path d="M149.045 132.209H143.385L141.135 126.355H130.834L128.707 132.209H123.188L133.225 106.439H138.727L149.045 132.209ZM139.465 122.014L135.914 112.451L132.434 122.014H139.465Z" fill="white"/>
<path d="M150.795 132.209V106.439H155.858L166.405 123.648V106.439H171.239V132.209H166.018L155.629 115.404V132.209H150.795Z" fill="white"/>
<path d="M175.696 132.209V106.439H180.899V116.582H191.094V106.439H196.297V132.209H191.094V120.941H180.899V132.209H175.696Z" fill="white"/>
<path d="M223.852 132.209H218.192L215.942 126.355H205.641L203.514 132.209H197.995L208.032 106.439H213.534L223.852 132.209ZM214.272 122.014L210.721 112.451L207.241 122.014H214.272Z" fill="white"/>
<path d="M233.135 106.439H242.645C244.79 106.439 246.424 106.604 247.549 106.932C249.061 107.377 250.356 108.168 251.434 109.305C252.512 110.441 253.333 111.836 253.895 113.488C254.458 115.129 254.739 117.156 254.739 119.57C254.739 121.691 254.475 123.52 253.948 125.055C253.303 126.93 252.383 128.447 251.188 129.607C250.286 130.486 249.067 131.172 247.532 131.664C246.383 132.027 244.848 132.209 242.926 132.209H233.135V106.439ZM238.339 110.799V127.867H242.223C243.676 127.867 244.725 127.785 245.37 127.621C246.214 127.41 246.911 127.053 247.462 126.549C248.024 126.045 248.481 125.219 248.833 124.07C249.184 122.91 249.36 121.334 249.36 119.342C249.36 117.35 249.184 115.82 248.833 114.754C248.481 113.688 247.989 112.855 247.356 112.258C246.723 111.66 245.921 111.256 244.948 111.045C244.221 110.881 242.798 110.799 240.676 110.799H238.339Z" fill="white"/>
<path d="M257.034 119.482C257.034 116.857 257.426 114.654 258.212 112.873C258.798 111.561 259.594 110.383 260.602 109.34C261.622 108.297 262.735 107.523 263.942 107.02C265.548 106.34 267.399 106 269.497 106C273.294 106 276.329 107.178 278.602 109.533C280.887 111.889 282.03 115.164 282.03 119.359C282.03 123.52 280.899 126.777 278.637 129.133C276.376 131.477 273.352 132.648 269.567 132.648C265.735 132.648 262.688 131.482 260.426 129.15C258.165 126.807 257.034 123.584 257.034 119.482ZM262.395 119.307C262.395 122.225 263.069 124.439 264.417 125.951C265.764 127.451 267.475 128.201 269.55 128.201C271.624 128.201 273.323 127.457 274.647 125.969C275.983 124.469 276.651 122.225 276.651 119.236C276.651 116.283 276.001 114.08 274.7 112.627C273.411 111.174 271.694 110.447 269.55 110.447C267.405 110.447 265.676 111.186 264.364 112.662C263.051 114.127 262.395 116.342 262.395 119.307Z" fill="white"/>
</svg>
