<svg width="344" height="225" viewBox="0 0 344 225" fill="none" xmlns="http://www.w3.org/2000/svg">
<path d="M84.4219 224.156H80V223.734H81.25V215.203H80V214.781H85.0312C85.8542 214.781 86.5521 214.974 87.125 215.359C87.8125 215.828 88.1562 216.453 88.1562 217.234C88.1562 217.495 88.1146 217.755 88.0312 218.016C87.7396 218.859 87.0625 219.422 86 219.703L88.4531 223.75H88.7812C88.8438 223.75 88.9062 223.755 88.9688 223.766C89.1042 223.797 89.1719 223.927 89.1719 224.156L86.5469 224.172L84.1719 219.875H83.1719V223.734H84.4219V224.156ZM84.25 215.203H83.1719V219.406H84.3438C84.7083 219.406 85.0312 219.307 85.3125 219.109C85.8438 218.724 86.1094 218.115 86.1094 217.281C86.1094 216.958 86.0573 216.656 85.9531 216.375C85.6615 215.594 85.0938 215.203 84.25 215.203Z" fill="white"/>
<path d="M105.426 217.719H105.019L104.722 216.75C104.691 216.646 104.655 216.547 104.613 216.453C104.28 215.62 103.712 215.203 102.91 215.203H100.91V219.094H103.988V219.562H100.91V223.734H102.91C103.118 223.734 103.311 223.708 103.488 223.656C104.03 223.49 104.436 223 104.707 222.188L105.019 221.219H105.426L105.363 224.156H97.7381V223.734H98.9881V215.203H97.7381V214.781H105.363L105.426 217.719Z" fill="white"/>
<path d="M122.242 221.594C122.242 222.271 122.002 222.844 121.523 223.312C120.836 223.979 119.851 224.312 118.57 224.312C117.476 224.312 116.523 224.047 115.711 223.516C115.711 223.714 115.7 223.859 115.679 223.953C115.627 224.109 115.471 224.188 115.211 224.188V220.906H115.773C115.804 221.312 115.872 221.688 115.976 222.031C116.372 223.25 117.19 223.859 118.429 223.859C118.763 223.859 119.065 223.802 119.336 223.688C120.013 223.417 120.351 222.917 120.351 222.188C120.351 221.948 120.294 221.719 120.179 221.5C119.961 221.062 119.393 220.62 118.476 220.172C117.487 219.682 116.914 219.396 116.757 219.312C115.778 218.719 115.289 217.984 115.289 217.109C115.289 216.526 115.497 216.021 115.914 215.594C116.549 214.948 117.471 214.625 118.679 214.625C119.627 214.625 120.513 214.828 121.336 215.234C121.336 215.141 121.341 215.057 121.351 214.984C121.393 214.786 121.56 214.688 121.851 214.688V217.484H121.289C121.289 216.911 121.143 216.417 120.851 216C120.414 215.385 119.768 215.078 118.914 215.078C118.643 215.078 118.388 215.125 118.148 215.219C117.544 215.448 117.242 215.875 117.242 216.5C117.242 216.74 117.299 216.974 117.414 217.203C117.632 217.63 118.19 218.068 119.086 218.516C120.065 218.995 120.627 219.276 120.773 219.359C121.752 219.964 122.242 220.708 122.242 221.594Z" fill="white"/>
<path d="M137.902 224.156H133.027V223.734H134.511V215.203H134.058C133.85 215.203 133.662 215.229 133.496 215.281C132.944 215.448 132.542 215.938 132.292 216.75L131.886 218.047H131.417L131.496 214.781H139.464L139.527 218.047H139.074L138.667 216.75C138.626 216.615 138.579 216.484 138.527 216.359C138.204 215.589 137.662 215.203 136.902 215.203H136.433V223.734H137.496C137.683 223.755 137.819 223.896 137.902 224.156Z" fill="white"/>
<path d="M157.968 224.156H154.046V223.734H155.124L153.952 220.734H150.796L149.656 223.734H150.484C150.546 223.734 150.604 223.74 150.656 223.75C150.801 223.781 150.874 223.917 150.874 224.156H148.031V223.734H149.031L152.468 214.781H153.437L157.093 223.734H157.577C157.65 223.734 157.708 223.74 157.749 223.75C157.895 223.781 157.968 223.917 157.968 224.156ZM153.765 220.266L152.359 216.609L150.968 220.266H153.765Z" fill="white"/>
<path d="M166.284 215.203V214.781H170.691V215.203H169.441V220.578C169.441 221.12 169.482 221.594 169.566 222C169.826 223.24 170.545 223.859 171.722 223.859C173.409 223.849 174.258 222.76 174.269 220.594V215.203H173.019V214.781H176.081V215.203H174.831V220.5C174.831 221.208 174.753 221.818 174.597 222.328C174.17 223.651 173.102 224.312 171.394 224.312C168.842 224.302 167.555 223.094 167.534 220.688V215.203H166.284Z" fill="white"/>
<path d="M189.147 224.156H184.726V223.734H185.976V215.203H184.726V214.781H189.757C190.58 214.781 191.278 214.974 191.851 215.359C192.538 215.828 192.882 216.453 192.882 217.234C192.882 217.495 192.84 217.755 192.757 218.016C192.465 218.859 191.788 219.422 190.726 219.703L193.179 223.75H193.507C193.569 223.75 193.632 223.755 193.694 223.766C193.83 223.797 193.897 223.927 193.897 224.156L191.272 224.172L188.897 219.875H187.897V223.734H189.147V224.156ZM188.976 215.203H187.897V219.406H189.069C189.434 219.406 189.757 219.307 190.038 219.109C190.569 218.724 190.835 218.115 190.835 217.281C190.835 216.958 190.783 216.656 190.679 216.375C190.387 215.594 189.819 215.203 188.976 215.203Z" fill="white"/>
<path d="M211.995 224.156H208.073V223.734H209.151L207.979 220.734H204.823L203.682 223.734H204.511C204.573 223.734 204.63 223.74 204.682 223.75C204.828 223.781 204.901 223.917 204.901 224.156H202.057V223.734H203.057L206.495 214.781H207.464L211.12 223.734H211.604C211.677 223.734 211.735 223.74 211.776 223.75C211.922 223.781 211.995 223.917 211.995 224.156ZM207.792 220.266L206.386 216.609L204.995 220.266H207.792Z" fill="white"/>
<path d="M227.28 215.203V214.781H230.452V215.203H229.202V224.078L228.374 224.234L222.311 217V223.734H223.217C223.436 223.755 223.577 223.896 223.639 224.156H220.421V223.734H221.671V215.203H220.421V214.781H222.905L228.561 221.547V215.203H227.28Z" fill="white"/>
<path d="M245.534 224.156H240.659V223.734H242.143V215.203H241.69C241.482 215.203 241.294 215.229 241.128 215.281C240.575 215.448 240.174 215.938 239.924 216.75L239.518 218.047H239.049L239.128 214.781H247.096L247.159 218.047H246.706L246.299 216.75C246.258 216.615 246.211 216.484 246.159 216.359C245.836 215.589 245.294 215.203 244.534 215.203H244.065V223.734H245.128C245.315 223.755 245.45 223.896 245.534 224.156Z" fill="white"/>
<path d="M263.756 217.719H263.35L263.053 216.75C263.022 216.646 262.985 216.547 262.944 216.453C262.61 215.62 262.043 215.203 261.241 215.203H259.241V219.094H262.319V219.562H259.241V223.734H261.241C261.449 223.734 261.642 223.708 261.819 223.656C262.36 223.49 262.767 223 263.038 222.188L263.35 221.219H263.756L263.694 224.156H256.069V223.734H257.319V215.203H256.069V214.781H263.694L263.756 217.719Z" fill="white"/>
<path fill-rule="evenodd" clip-rule="evenodd" d="M43.5 143.699C35.025 145.555 27.982 152.174 25.151 160.942C23.102 167.286 23.02 178.843 24.977 185.435C26.768 191.464 32.249 198.119 37.857 201.075C41.215 202.844 43.72 203.264 51.078 203.29C59.464 203.321 60.53 203.092 65.044 200.302C74.953 194.175 79.307 184.233 78.279 170.081C77.405 158.054 71.698 148.893 62.748 145.153C58.624 143.43 48.289 142.649 43.5 143.699ZM146.832 143.72C140.81 145.273 134.53 149.808 131.026 155.132C122.85 167.555 123.844 184.173 133.413 195.072C141.581 204.374 161.712 206.793 171.709 199.674L174.56 197.644L174.28 185.484L174 173.323H167.5H161L160.871 179.823C160.64 191.522 160.614 191.652 158.413 192.351C152.365 194.27 142.47 187.977 140.525 180.975C136.539 166.622 144.235 154.823 157.584 154.823C161.803 154.823 168.67 158.17 170.693 161.213C171.079 161.795 171.864 160.945 172.469 159.289C173.066 157.658 174.074 155.019 174.71 153.425C175.768 150.771 175.618 150.327 172.933 148.167C171.32 146.869 168.425 145.345 166.5 144.78C161.588 143.338 150.605 142.746 146.832 143.72ZM307.146 143.929C300.24 145.552 294.998 150.107 291.316 157.687C287.955 164.605 287.524 179.229 290.452 187.003C294.28 197.166 302.098 202.775 313.581 203.597C333.994 205.057 346.627 188.576 342.507 165.86C339.331 148.349 325.32 139.659 307.146 143.929ZM6.635 147.352C7.177 149.313 7.474 160.468 7.305 172.463L7 194.046L3.5 196.995L0 199.944L2.361 201.883C7.133 205.804 16.011 203.521 19.188 197.556C20.55 195.001 20.974 191.177 21.211 179.323C21.376 171.073 21.632 159.71 21.78 154.073L22.051 143.823H13.856H5.661L6.635 147.352ZM80.105 146.387C81.099 150.345 81.154 195.718 80.171 199.573L79.341 202.823H88.028C95.96 202.823 96.64 202.671 95.857 201.073C94.764 198.841 94.428 174.823 95.49 174.823C96.415 174.823 96.46 174.928 101.578 189.116C103.719 195.052 105.365 200.452 105.236 201.116C105.068 201.972 107.686 202.406 114.25 202.611C119.338 202.769 123.5 202.638 123.5 202.32C123.5 202.002 122.594 200.517 121.487 199.02C119.37 196.156 113.481 182.432 113.527 180.469C113.542 179.839 115.234 178.288 117.287 177.024C122.484 173.822 124.51 169.855 124.452 162.992C124.387 155.348 122.102 151.08 116.082 147.361C111.226 144.362 110.962 144.319 95.291 143.984L79.417 143.646L80.105 146.387ZM176.217 146.573C177.116 149.844 177.01 196.654 176.096 200.296L175.462 202.823H192.956H210.45L209.475 200.258C208.339 197.269 208.14 174.814 209.25 174.842C209.663 174.852 213.214 181.04 217.142 188.592L224.284 202.323L241.44 202.597C258.205 202.864 258.572 202.826 257.548 200.913C256.972 199.836 256.5 194.425 256.5 188.889V178.823H263.889H271.277L271.95 182.408C272.573 185.728 272.092 193.515 270.858 200.073L270.341 202.823H279.028C286.96 202.823 287.64 202.671 286.857 201.073C285.793 198.899 285.714 150.345 286.769 146.573L287.538 143.823H278.902C270.404 143.823 270.278 143.859 270.975 146.073C271.364 147.311 271.92 152.216 272.209 156.975C272.835 167.267 272.475 167.646 262.645 167.032L256.29 166.635L256.652 155.229L257.014 143.823L240.507 143.822H224L224.334 158.072C224.691 173.274 224.492 173.651 220.24 165.823C218.896 163.348 215.668 157.386 213.067 152.573L208.338 143.823H191.9H175.462L176.217 146.573ZM194.414 173.323C194.465 196.472 193.882 202.537 191.804 200.461C190.722 199.379 190.771 148.857 191.857 146.323L192.715 144.323L193.537 146.323C193.989 147.423 194.384 159.573 194.414 173.323ZM241.893 147.405C242.227 148.275 242.493 160.087 242.485 173.655C242.47 197.731 241.832 203.352 239.515 199.823C238.451 198.201 238.106 151.895 239.13 148.073C239.834 145.447 241.031 145.158 241.893 147.405ZM58.122 157.311C61.879 159.772 64.456 166.288 64.456 173.323C64.456 185.011 58.461 192.387 49.688 191.494C41.585 190.669 36.924 182.953 37.682 171.616C38.2 163.866 39.957 160.105 44.5 157.024C48.479 154.326 53.735 154.437 58.122 157.311ZM321.465 156.665C326.71 159.477 329.005 164.786 328.973 174.025C328.949 180.948 328.642 182.162 325.936 186.025C323.44 189.587 322.149 190.474 318.395 191.207C308.683 193.101 302.063 185.786 302.251 173.37C302.38 164.904 304.822 159.233 309.375 156.827C313.982 154.392 317.149 154.35 321.465 156.665ZM108.556 157.667C111.68 160.197 111.652 165.472 108.5 168.024C106.706 169.477 104.878 169.845 100.584 169.618L95 169.323L94.684 164.903C94.106 156.812 94.784 155.823 100.908 155.823C104.637 155.823 106.974 156.387 108.556 157.667Z" fill="white"/>
<path fill-rule="evenodd" clip-rule="evenodd" d="M178.831 3.73876C175.582 6.82876 174.782 8.25076 175.038 10.4808C175.256 12.3738 176.022 13.4228 177.363 13.6618C183.471 14.7478 181.609 19.1458 169.945 31.1838C159.562 41.8988 157.681 44.6898 155.797 52.1718C155.153 54.7298 154.229 56.8228 153.744 56.8228C152.507 56.8228 152.628 55.5318 154.545 48.3388C156.126 42.4068 156.124 41.8698 154.522 39.4248C152.111 35.7448 149.74 35.9578 150.505 39.7848C151.097 42.7428 149.31 46.6538 143.365 55.4148C140.675 59.3798 138.404 70.3628 139.14 75.8518C139.956 81.9348 143.518 86.6398 150.945 91.4448C159.012 96.6628 160.352 96.9558 156.11 92.5728C152.239 88.5738 149.863 83.0908 149.863 78.1578V74.4278L154.019 78.6258C159.333 83.9928 161.969 84.2508 161.17 79.3248C160.486 75.1138 162.438 64.5078 164.665 60.3358L166.272 57.3228L167.127 61.8228C169.468 74.1548 171.117 78.7778 174.37 82.1278C177.642 85.4958 183.744 87.8228 189.306 87.8228C194.418 87.8228 191.891 90.7838 185.897 91.8168L182.363 92.4268L185.563 94.1248C190.854 96.9318 195.526 96.3598 199.463 92.4228C201.981 89.9048 202.862 88.1538 202.857 85.6728C202.849 80.3668 201.142 75.5668 197.385 70.2828C193.278 64.5068 193.87 63.2448 200.563 63.5038L205.166 63.6818L203.161 61.6768C202.059 60.5738 199.343 59.4288 197.126 59.1308C193.885 58.6968 192.675 59.0108 190.954 60.7318C189.175 62.5108 188.852 63.8838 189.048 68.8378C189.286 74.8738 188.077 77.6918 185.842 76.3098C185.058 75.8258 184.863 74.2248 185.274 71.6518C185.866 67.9538 185.787 67.7928 183.882 68.8128C182.433 69.5878 181.863 69.5868 181.863 68.8088C181.863 66.0848 185.169 61.8318 189.079 59.5268C195.955 55.4728 199.063 51.6438 198.685 47.6928C198.407 44.7858 197.686 43.9748 193.437 41.7938C187.764 38.8818 186.961 37.4778 189.415 34.7648C191.112 32.8898 191.084 32.8228 188.607 32.8228C186.969 32.8228 185.104 33.9358 183.452 35.8998C179.332 40.7958 180.181 44.0068 185.654 44.2238C188.858 44.3508 191.021 47.4598 188.863 48.8358C186.447 50.3758 182.265 49.9688 179.772 47.9498C177.582 46.1768 177.528 45.8438 178.748 41.6998C179.457 39.2928 181.771 33.8678 183.891 29.6448C190.134 17.2088 190.179 12.8718 184.082 11.3418C180.054 10.3308 179.743 8.88376 182.529 4.12876C185.671 -1.23124 184.216 -1.38424 178.831 3.73876Z" fill="#FFB84D"/>
<path d="M65 132.209V106.439H73.3496C76.5137 106.439 78.5762 106.568 79.5371 106.826C81.0137 107.213 82.25 108.057 83.2461 109.357C84.2422 110.646 84.7402 112.316 84.7402 114.367C84.7402 115.949 84.4531 117.279 83.8789 118.357C83.3047 119.436 82.5723 120.285 81.6816 120.906C80.8027 121.516 79.9062 121.92 78.9922 122.119C77.75 122.365 75.9512 122.488 73.5957 122.488H70.2031V132.209H65ZM70.2031 110.799V118.111H73.0508C75.1016 118.111 76.4727 117.977 77.1641 117.707C77.8555 117.438 78.3945 117.016 78.7812 116.441C79.1797 115.867 79.3789 115.199 79.3789 114.438C79.3789 113.5 79.1035 112.727 78.5527 112.117C78.002 111.508 77.3047 111.127 76.4609 110.975C75.8398 110.857 74.5918 110.799 72.7168 110.799H70.2031Z" fill="white"/>
<path d="M87.7735 132.209V106.439H92.9766V132.209H87.7735Z" fill="white"/>
<path d="M113.36 122.734L118.404 124.334C117.631 127.146 116.342 129.238 114.537 130.609C112.744 131.969 110.465 132.648 107.699 132.648C104.278 132.648 101.465 131.482 99.2619 129.15C97.0588 126.807 95.9572 123.607 95.9572 119.553C95.9572 115.264 97.0646 111.936 99.2795 109.568C101.494 107.189 104.406 106 108.016 106C111.168 106 113.729 106.932 115.697 108.795C116.869 109.896 117.748 111.479 118.334 113.541L113.184 114.771C112.879 113.436 112.24 112.381 111.268 111.607C110.307 110.834 109.135 110.447 107.752 110.447C105.842 110.447 104.289 111.133 103.094 112.504C101.91 113.875 101.319 116.096 101.319 119.166C101.319 122.424 101.904 124.744 103.076 126.127C104.248 127.51 105.772 128.201 107.647 128.201C109.029 128.201 110.219 127.762 111.215 126.883C112.211 126.004 112.926 124.621 113.36 122.734Z" fill="white"/>
<path d="M145.045 132.209H139.385L137.135 126.355H126.834L124.707 132.209H119.188L129.225 106.439H134.727L145.045 132.209ZM135.465 122.014L131.914 112.451L128.434 122.014H135.465Z" fill="white"/>
<path d="M146.795 132.209V106.439H151.858L162.405 123.648V106.439H167.239V132.209H162.018L151.629 115.404V132.209H146.795Z" fill="white"/>
<path d="M171.696 132.209V106.439H176.899V116.582H187.094V106.439H192.297V132.209H187.094V120.941H176.899V132.209H171.696Z" fill="white"/>
<path d="M219.852 132.209H214.192L211.942 126.355H201.641L199.514 132.209H193.995L204.032 106.439H209.534L219.852 132.209ZM210.272 122.014L206.721 112.451L203.241 122.014H210.272Z" fill="white"/>
<path d="M229.135 106.439H238.645C240.79 106.439 242.424 106.604 243.549 106.932C245.061 107.377 246.356 108.168 247.434 109.305C248.512 110.441 249.333 111.836 249.895 113.488C250.458 115.129 250.739 117.156 250.739 119.57C250.739 121.691 250.475 123.52 249.948 125.055C249.303 126.93 248.383 128.447 247.188 129.607C246.286 130.486 245.067 131.172 243.532 131.664C242.383 132.027 240.848 132.209 238.926 132.209H229.135V106.439ZM234.339 110.799V127.867H238.223C239.676 127.867 240.725 127.785 241.37 127.621C242.214 127.41 242.911 127.053 243.462 126.549C244.024 126.045 244.481 125.219 244.833 124.07C245.184 122.91 245.36 121.334 245.36 119.342C245.36 117.35 245.184 115.82 244.833 114.754C244.481 113.688 243.989 112.855 243.356 112.258C242.723 111.66 241.921 111.256 240.948 111.045C240.221 110.881 238.798 110.799 236.676 110.799H234.339Z" fill="white"/>
<path d="M253.034 119.482C253.034 116.857 253.426 114.654 254.212 112.873C254.798 111.561 255.594 110.383 256.602 109.34C257.622 108.297 258.735 107.523 259.942 107.02C261.548 106.34 263.399 106 265.497 106C269.294 106 272.329 107.178 274.602 109.533C276.887 111.889 278.03 115.164 278.03 119.359C278.03 123.52 276.899 126.777 274.637 129.133C272.376 131.477 269.352 132.648 265.567 132.648C261.735 132.648 258.688 131.482 256.426 129.15C254.165 126.807 253.034 123.584 253.034 119.482ZM258.395 119.307C258.395 122.225 259.069 124.439 260.417 125.951C261.764 127.451 263.475 128.201 265.55 128.201C267.624 128.201 269.323 127.457 270.647 125.969C271.983 124.469 272.651 122.225 272.651 119.236C272.651 116.283 272.001 114.08 270.7 112.627C269.411 111.174 267.694 110.447 265.55 110.447C263.405 110.447 261.676 111.186 260.364 112.662C259.051 114.127 258.395 116.342 258.395 119.307Z" fill="white"/>
</svg>
